<svg version="1.1" xmlns="http://www.w3.org/2000/svg" xmlns:xlink="http://www.w3.org/1999/xlink" width="31.03428" height="22.04634" viewBox="0,0,31.03428,22.04634"><g transform="translate(-304.54799,-168.9714)"><g data-paper-data="{&quot;isPaintingLayer&quot;:true}" fill-rule="nonzero" stroke="#ffffff" stroke-linecap="butt" stroke-linejoin="miter" stroke-miterlimit="10" stroke-dasharray="" stroke-dashoffset="0" style="mix-blend-mode: normal"><path d="M332.21181,184.58379c0,1.10994 0.35146,4.12867 -1.4583,4.91341c-1.80976,0.78475 -2.87703,-2.22452 -4.98031,-2.12157c-2.10328,0.10295 -3.15109,2.91435 -5.13038,2.08791c-1.97932,-0.82644 -1.56292,-3.78297 -1.56292,-4.88257c0,-3.26789 3.82468,-7.42107 6.70218,-7.42107c2.8775,0 6.42974,4.156 6.42974,7.42389z" fill="none" stroke-width="1"/><path d="M319.84281,176.78792c0.29797,1.77024 -0.28637,3.35056 -1.3052,3.5297c-1.01881,0.17916 -2.08625,-1.11068 -2.38424,-2.88092c-0.29797,-1.77024 0.28637,-3.35056 1.3052,-3.5297c1.01881,-0.17916 2.08625,1.11068 2.38424,2.88092z" fill="none" stroke-width="1"/><path d="M333.69933,173.46058c1.01881,0.17916 1.60315,1.75948 1.30516,3.5297c-0.29797,1.77024 -1.36543,3.0601 -2.38424,2.88092c-1.01881,-0.17916 -1.60315,-1.75948 -1.3052,-3.5297c0.29797,-1.77024 1.36543,-3.0601 2.38424,-2.88092z" data-paper-data="{&quot;index&quot;:null}" fill="none" stroke-width="1"/><path d="M328.47041,169.4714c1.03002,0.08997 1.74371,1.61375 1.59409,3.40347c-0.14962,1.78971 -1.10589,3.16769 -2.13591,3.07772c-1.03002,-0.08997 -1.74371,-1.61375 -1.59409,-3.40347c0.14962,-1.78971 1.10589,-3.16769 2.13595,-3.07772z" data-paper-data="{&quot;index&quot;:null}" fill="none" stroke-width="1"/><path d="M324.82111,172.52337c0.17327,1.78751 -0.52023,3.32102 -1.54897,3.42519c-1.02874,0.10417 -2.00315,-1.26044 -2.17642,-3.04795c-0.17327,-1.78751 0.52023,-3.32102 1.54897,-3.42519c1.02874,-0.10417 2.00315,1.26043 2.17646,3.04795z" data-paper-data="{&quot;index&quot;:null}" fill="none" stroke-width="1"/><text transform="translate(304.91773,185.9979) scale(0.36973,0.3779)" font-size="40" xml:space="preserve" fill="#ffffff" fill-rule="nonzero" stroke="#ffffff" stroke-width="2" stroke-linecap="butt" stroke-linejoin="miter" stroke-miterlimit="10" stroke-dasharray="" stroke-dashoffset="0" font-family="Sans Serif" font-weight="normal" text-anchor="start" style="mix-blend-mode: normal"><tspan x="0" dy="0">+</tspan></text></g></g></svg>