<svg version="1.1" xmlns="http://www.w3.org/2000/svg" xmlns:xlink="http://www.w3.org/1999/xlink" width="100.35101" height="100.04222" viewBox="0,0,100.35101,100.04222"><defs><linearGradient x1="320.70629" y1="138.55526" x2="320.70629" y2="165.44524" gradientUnits="userSpaceOnUse" id="color-1"><stop offset="0" stop-color="#ff6666"/><stop offset="1" stop-color="#668eff"/></linearGradient><radialGradient cx="322.11331" cy="139.40621" r="5.61626" gradientUnits="userSpaceOnUse" id="color-2"><stop offset="0" stop-color="#ff2c2c"/><stop offset="1" stop-color="#ff2c2c" stop-opacity="0"/></radialGradient></defs><g transform="translate(-269.90888,-129.97889)"><g data-paper-data="{&quot;isPaintingLayer&quot;:true}" fill-rule="nonzero" stroke-linejoin="miter" stroke-miterlimit="10" stroke-dasharray="" stroke-dashoffset="0" style="mix-blend-mode: normal"><g stroke="#d9d9d9" stroke-width="1" stroke-linecap="butt"><path d="M270.50786,204.44129c0,-16.39527 0,-36.45796 0,-45.89072c0,-10.12116 14.87248,-24.01258 25.61343,-24.01258c9.94197,0 30.97395,0 48.02517,0c14.18399,0 25.61343,14.2343 25.61343,24.01259c0,9.08657 0,29.5233 0,45.89072c0,14.84131 -12.45503,25.07981 -23.47897,25.07981c-16.79206,0 -35.89961,0 -46.95795,0c-11.71631,0 -28.8151,-11.23171 -28.8151,-25.07981z" fill="#d9d9d9"/><path d="M270.40888,200.38219c0,-16.39527 0,-36.45797 0,-45.89072c0,-10.12116 14.87248,-24.01258 25.61343,-24.01258c9.94197,0 30.97394,0 48.02517,0c14.18399,0 25.61343,14.2343 25.61343,24.01259c0,9.08657 0,29.5233 0,45.89072c0,14.84131 -12.45503,25.07981 -23.47897,25.07981c-16.79206,0 -35.89961,0 -46.95795,0c-11.71631,0 -28.8151,-11.23171 -28.8151,-25.07981z" fill="#ffffff"/></g><path d="M289.53363,218.82537v-5.09547h69.86156v5.09547z" fill="#ffffff" stroke="none" stroke-width="0" stroke-linecap="butt"/><path d="M354.29972,213.32763v-6.57047h5.36365v6.57047z" fill="#ffffff" stroke="none" stroke-width="0" stroke-linecap="butt"/><path d="M344.67751,204.42375v0" fill="#ffffff" stroke="none" stroke-width="1" stroke-linecap="butt"/><path d="M296.17344,204.42375" fill="#ffffff" stroke="none" stroke-width="1" stroke-linecap="butt"/><path d="M351.4,197.70126c0,15.57236 -14.04065,20.59295 -31.4,20.59295c-17.35935,0 -31.4,-5.0206 -31.4,-20.59295c0,-7.31816 2.04228,-15.74255 6.5523,-22.55014l-3.65908,-12.33875c-0.68076,-2.29756 1.7019,-4.51003 3.91436,-3.57398l12.16856,5.10569c3.57398,-1.6168 7.65854,-2.55285 12.42385,-2.55285c4.68022,0 8.76477,1.02114 12.33875,2.63794l12.25366,-5.10569c2.21247,-0.93604 4.59512,1.27642 3.91436,3.57398l-3.74417,12.50894c4.51003,6.72249 6.6374,15.06179 6.6374,22.29485z" fill="#ff7319" stroke="none" stroke-width="1" stroke-linecap="butt"/><path d="M344.59241,207.57226c0,8.16911 -10.97724,10.80705 -24.59241,10.80705c-13.61518,0 -24.59241,-2.63794 -24.59241,-10.80705c0,-8.16911 7.31816,-18.80596 24.59241,-18.80596c16.84878,0 24.59241,10.63686 24.59241,18.80596z" fill="#ffffff" stroke="none" stroke-width="1" stroke-linecap="butt"/><path d="M317.27696,192.51047c0,-1.10623 1.19133,-1.44661 2.72304,-1.44661c1.53171,0 2.72304,0.34038 2.72304,1.44661c0,1.10623 -0.85095,2.46775 -2.72304,2.46775c-1.87209,0 -2.72304,-1.36152 -2.72304,-2.46775z" fill="#945600" stroke="#000000" stroke-width="1.5" stroke-linecap="butt"/><path d="M329.36043,196.08445c0,2.55285 -2.12737,4.68022 -4.68022,4.68022c-2.55285,0 -4.68022,-2.04228 -4.68022,-4.68022c0,-0.17019 0,-0.17019 0,-0.17019c0,-0.17019 0,-0.25528 0,-0.25528c0,0 0,0.08509 0,0.25528c0,0 0,0 0,0.17019c0,2.55285 -2.12737,4.68022 -4.68022,4.68022c-2.55285,0 -4.68022,-2.04228 -4.68022,-4.68022" fill="none" stroke="#000000" stroke-width="2.5" stroke-linecap="round"/><path d="M311.91599,183.06494c0,-1.45689 1.18105,-2.63794 2.63794,-2.63794c1.45689,0 2.63794,1.18105 2.63794,2.63794c0,1.45689 -1.18105,2.63794 -2.63794,2.63794c-1.45689,0 -2.63794,-1.18105 -2.63794,-2.63794z" fill="#000000" stroke="none" stroke-width="1" stroke-linecap="butt"/><path d="M322.80813,183.06494c0,-1.45689 1.18105,-2.63794 2.63794,-2.63794c1.45689,0 2.63794,1.18105 2.63794,2.63794c0,1.45689 -1.18105,2.63794 -2.63794,2.63794c-1.45689,0 -2.63794,-1.18105 -2.63794,-2.63794z" fill="#000000" stroke="none" stroke-width="1" stroke-linecap="butt"/><path d="M300.85366,169.02429c-1.7019,1.53171 -3.2336,2.97832 -4.51003,5.19079l-3.3187,-11.4878c-0.25528,-1.36152 1.02114,-2.55285 2.38266,-2.12737l10.97724,4.59512c-2.55285,1.02114 -3.91436,2.38266 -5.53117,3.82927z" fill="#77500c" stroke="none" stroke-width="1" stroke-linecap="butt"/><path d="M333.95556,165.19502l10.97724,-4.59512c1.36152,-0.42547 2.63794,0.76585 2.38266,2.12737l-3.2336,11.5729c-1.36152,-2.21247 -2.80813,-3.65908 -4.59512,-5.19079c-1.6168,-1.53171 -3.06341,-2.89322 -5.53117,-3.91436z" fill="#77500c" stroke="none" stroke-width="1" stroke-linecap="butt"/><path d="M313.13285,165.44524l8.16911,-26.88997h1.53171l5.44607,26.88997z" fill="url(#color-1)" stroke="#000000" stroke-width="0" stroke-linecap="butt"/><path d="M327.59897,139.40621c0,3.10178 -2.45602,5.61626 -5.48566,5.61626c-3.02964,0 -5.48565,-2.51448 -5.48565,-5.61626c0,-3.10178 2.45601,-5.61626 5.48565,-5.61626c3.02964,0 5.48566,2.51448 5.48566,5.61626z" fill="url(#color-2)" stroke="none" stroke-width="0" stroke-linecap="butt"/></g></g></svg>