<svg version="1.1" xmlns="http://www.w3.org/2000/svg" xmlns:xlink="http://www.w3.org/1999/xlink" width="30.69414" height="30.69413" viewBox="0,0,30.69414,30.69413"><g transform="translate(-305.12094,-164.18493)"><g data-paper-data="{&quot;isPaintingLayer&quot;:true}" fill="#ffffff" fill-rule="nonzero" stroke="#000000" stroke-width="3" stroke-linecap="round" stroke-linejoin="round" stroke-miterlimit="10" stroke-dasharray="" stroke-dashoffset="0" style="mix-blend-mode: normal"><path d="M323.31236,172.16841c-0.57418,0.58571 -0.57418,1.52327 0,2.10902l2.41028,2.41028c0.58571,0.57417 1.52327,0.57417 2.10902,0l5.67928,-5.67929c1.55103,3.42756 0.81676,7.45742 -1.84348,10.11766c-2.66024,2.66024 -6.69013,3.39449 -10.11766,1.84349l-10.40949,10.40949c-1.248,1.248 -3.27137,1.248 -4.51936,0c-1.248,-1.248 -1.248,-3.27136 0,-4.51936l10.4095,-10.4095c-1.55103,-3.42756 -0.81675,-7.45742 1.84349,-10.11766c2.66024,-2.66024 6.69013,-3.39448 10.11766,-1.84348l-5.6642,5.66419z"/></g></g></svg>