<svg version="1.1" xmlns="http://www.w3.org/2000/svg" xmlns:xlink="http://www.w3.org/1999/xlink" width="333.45" height="219.05597" viewBox="0,0,333.45,219.05597"><defs><linearGradient x1="307.33" y1="62.07334" x2="307.33" y2="93.67334" gradientUnits="userSpaceOnUse" id="color-1"><stop offset="0" stop-color="#ff6666"/><stop offset="1" stop-color="#668eff"/></linearGradient><radialGradient cx="308.98348" cy="63.07334" r="6.6" gradientUnits="userSpaceOnUse" id="color-2"><stop offset="0" stop-color="#ff2c2c"/><stop offset="1" stop-color="#ff2c2c" stop-opacity="0"/></radialGradient></defs><g transform="translate(-153.27499,-56.47333)"><g data-paper-data="{&quot;isPaintingLayer&quot;:true}" fill-rule="nonzero" stroke-linejoin="miter" stroke-miterlimit="10" stroke-dasharray="" stroke-dashoffset="0" style="mix-blend-mode: normal"><path d="M256.47499,264.72931v-104h224v99" fill="none" stroke="#350a00" stroke-width="12.5" stroke-linecap="round"/><path d="M153.27499,274.12931v-18.3l9,4.7l10.8,-4l10.6,5.6l6.3,-6.3v18.3z" fill="#0fbd8c" stroke="none" stroke-width="1" stroke-linecap="butt"/><path d="M240.075,251.02931l1.3,18.3l-9.3,-4l-10.5,4.8l-10.9,-4.8l-5.9,6.8l-1.3,-18.3z" fill="#0fbd8c" stroke="none" stroke-width="1" stroke-linecap="butt"/><path d="M202.975,267.8293l-1.3,6.9l-4.9,-2.2l-2.6,3l-0.6,-8.2z" fill="#0fbd8c" stroke="none" stroke-width="1" stroke-linecap="butt"/><path d="M166.575,266.92931c0,0 0.6,-2.1 1.7,-2.9c1.1,-0.8 2.7,-1.2 3.6,-1.2c0.7,0 3,0.5 3.9,1c1.6,0.9 1.7,3.1 1.7,3.1" fill="none" stroke="#ffffff" stroke-width="1.5" stroke-linecap="round"/><path d="M164.675,264.62931c0,0 0.8,-2.7 2.3,-3.8c1.5,-1 3.6,-1.6 4.8,-1.6c1,0 4,0.6 5.2,1.3c2.1,1.2 2.3,4.1 2.3,4.1" fill="none" stroke="#ffffff" stroke-width="1.5" stroke-linecap="round"/><path d="M174.175,270.02931c0,1 -0.8,1.8 -1.8,1.8c-1,0 -1.8,-0.8 -1.8,-1.8c0,-1 0.8,-1.8 1.8,-1.8c1,0 1.8,0.8 1.8,1.8z" fill="#ffffff" stroke="none" stroke-width="1" stroke-linecap="butt"/><path d="M168.975,268.42931c0,0 0.4,-1.3 1.1,-1.8c0.7,-0.5 1.7,-0.8 2.2,-0.8c0.4,0 1.8,0.3 2.4,0.6c1,0.6 1.1,1.9 1.1,1.9" fill="none" stroke="#ffffff" stroke-width="1.5" stroke-linecap="round"/><path d="M335.5,139.4793v0" fill="#ffffff" stroke="none" stroke-width="1" stroke-linecap="butt"/><path d="M278.5,139.4793" fill="#ffffff" stroke="none" stroke-width="1" stroke-linecap="butt"/><path d="M343.4,131.5793c0,18.3 -16.5,24.2 -36.9,24.2c-20.4,0 -36.9,-5.9 -36.9,-24.2c0,-8.6 2.4,-18.5 7.7,-26.5l-4.3,-14.5c-0.8,-2.7 2,-5.3 4.6,-4.2l14.3,6c4.2,-1.9 9,-3 14.6,-3c5.5,0 10.3,1.2 14.5,3.1l14.4,-6c2.6,-1.1 5.4,1.5 4.6,4.2l-4.4,14.7c5.3,7.9 7.8,17.7 7.8,26.2z" fill="#ff7319" stroke="none" stroke-width="1" stroke-linecap="butt"/><path d="M335.4,143.1793c0,9.6 -12.9,12.7 -28.9,12.7c-16,0 -28.9,-3.1 -28.9,-12.7c0,-9.6 8.6,-22.1 28.9,-22.1c19.8,0 28.9,12.5 28.9,22.1z" fill="#ffffff" stroke="none" stroke-width="1" stroke-linecap="butt"/><path d="M303.3,125.4793c0,-1.3 1.4,-1.7 3.2,-1.7c1.8,0 3.2,0.4 3.2,1.7c0,1.3 -1,2.9 -3.2,2.9c-2.2,0 -3.2,-1.6 -3.2,-2.9z" fill="#945600" stroke="#000000" stroke-width="1.5" stroke-linecap="butt"/><path d="M293.5,115.8793c0,-1.71208 1.38792,-3.1 3.1,-3.1c1.71208,0 3.1,1.38792 3.1,3.1c0,1.71208 -1.38792,3.1 -3.1,3.1c-1.71208,0 -3.1,-1.38792 -3.1,-3.1z" fill="#000000" stroke="none" stroke-width="1" stroke-linecap="butt"/><path d="M305.3,115.8793c0,-1.71208 1.38792,-3.1 3.1,-3.1c1.71208,0 3.1,1.38792 3.1,3.1c0,1.71208 -1.38792,3.1 -3.1,3.1c-1.71208,0 -3.1,-1.38792 -3.1,-3.1z" fill="#000000" stroke="none" stroke-width="1" stroke-linecap="butt"/><path d="M284,97.8793c-2,1.8 -3.8,3.5 -5.3,6.1l-3.9,-13.5c-0.3,-1.6 1.2,-3 2.8,-2.5l12.9,5.4c-3,1.2 -4.6,2.8 -6.5,4.5z" fill="#77500c" stroke="none" stroke-width="1" stroke-linecap="butt"/><path d="M322.9,93.3793l12.9,-5.4c1.6,-0.5 3.1,0.9 2.8,2.5l-3.8,13.6c-1.6,-2.6 -3.3,-4.3 -5.4,-6.1c-1.9,-1.8 -3.6,-3.4 -6.5,-4.6z" fill="#77500c" stroke="none" stroke-width="1" stroke-linecap="butt"/><path d="M298.43,93.67334l9.6,-31.6h1.8l6.4,31.6z" fill="url(#color-1)" stroke="#000000" stroke-width="0" stroke-linecap="butt"/><path d="M315.43,63.07334c0,3.64508 -2.88621,6.6 -6.44652,6.6c-3.56031,0 -6.44651,-2.95492 -6.44651,-6.6c0,-3.64508 2.8862,-6.6 6.44651,-6.6c3.56031,0 6.44652,2.95492 6.44652,6.6z" fill="url(#color-2)" stroke="none" stroke-width="0" stroke-linecap="butt"/><g fill="none" stroke="#000000" stroke-width="2.5" stroke-linecap="round"><g><path d="M300.575,134.02931c3,0 5.5,-2.5 5.5,-5.5c0,-0.2 0,-0.2 0,-0.2c0,-0.2 0,-0.3 0,-0.3c0,0 0,0.1 0,0.3c0,0 0,0 0,0.2c0,3.1 2.5,5.5 5.5,5.5"/></g></g></g></g></svg>